<svg width="108" height="45" viewBox="0 0 108 45" fill="none" xmlns="http://www.w3.org/2000/svg">
<circle cx="22.5" cy="22.5" r="22.5" fill="url(#paint0_linear_2_11)"/>
<path d="M58.4561 13L56.1172 9.82617C57.0742 9.53809 57.7725 8.65918 57.7725 7.63867C57.7725 6.25195 56.5811 5.12891 55.1211 5.12891H52.7969L52.8018 13H53.6904V9.92871H55.1602L57.3574 13H58.4561ZM53.6855 9.17676V6.00781H55.1504C56.0781 6.00781 56.8594 6.71094 56.8594 7.61914C56.8594 8.46875 56.0879 9.18164 55.1504 9.18164L53.6855 9.17676ZM62.9922 13.1025C65.2236 13.1025 67.0449 11.2861 67.0449 9.06934C67.0449 6.83789 65.2236 5.0166 62.9971 5.0166C60.7754 5.0166 58.9541 6.83789 58.9541 9.06934C58.9541 11.2861 60.7754 13.1025 62.9922 13.1025ZM62.9922 12.2041C61.2637 12.2041 59.8525 10.793 59.8525 9.06445C59.8525 7.33105 61.2637 5.91016 62.9922 5.91016C64.7305 5.91016 66.1465 7.33105 66.1465 9.06445C66.1465 10.793 64.7305 12.2041 62.9922 12.2041ZM71.127 13.1221C72.8018 13.1221 74.042 11.7793 74.042 9.94336V5.12891H73.1484V9.93848C73.1484 11.2568 72.2891 12.2236 71.127 12.2236C69.9648 12.2236 69.1055 11.2617 69.1055 9.93848V5.12891H68.2119V9.94336C68.2119 11.7793 69.457 13.1221 71.127 13.1221ZM82.9775 8.83008H79.2373V9.63086H82.0596C82.0645 9.6748 82.0645 9.72852 82.0645 9.78711C82.0645 11.1787 80.8535 12.209 79.3154 12.209C77.499 12.209 76.1074 10.7979 76.1074 9.06934C76.1074 7.28711 77.582 5.91016 79.2422 5.91016C80.0332 5.91016 80.9902 6.33496 81.6006 6.94043L82.0986 6.20312C81.3906 5.51465 80.2139 5.02637 79.2471 5.02148C77.0254 5.02148 75.2041 6.84766 75.2041 9.06934C75.2041 11.291 77.0205 13.1074 79.2812 13.1074C81.3125 13.1074 83.0117 11.5986 83.0117 9.3916C83.0117 9.16699 82.9922 8.95703 82.9775 8.83008ZM87.8848 13.1025C90.1162 13.1025 91.9375 11.2861 91.9375 9.06934C91.9375 6.83789 90.1162 5.0166 87.8896 5.0166C85.668 5.0166 83.8467 6.83789 83.8467 9.06934C83.8467 11.2861 85.668 13.1025 87.8848 13.1025ZM87.8848 12.2041C86.1562 12.2041 84.7451 10.793 84.7451 9.06445C84.7451 7.33105 86.1562 5.91016 87.8848 5.91016C89.623 5.91016 91.0391 7.33105 91.0391 9.06445C91.0391 10.793 89.623 12.2041 87.8848 12.2041ZM98.627 5.10938V10.9932L93.2363 5.00684H93.1875V13.0098H94.0762V7.13086L99.4717 13.1221H99.5156V5.10938H98.627ZM100.761 9.55762H104.618V8.7666H100.761V9.55762ZM57.5332 18.9824L53.7783 25.2422L50.0234 18.9824H49.9209V27H50.8096V21.6484L53.7734 26.8682H53.7832L56.7422 21.6582V27H57.6309V18.9824H57.5332ZM65.0039 27H65.9707L62.3281 19.0068H62.2305L58.5928 27H59.5547L60.1309 25.7061H64.4277L65.0039 27ZM60.4775 24.9346L62.2842 20.8867L64.0859 24.9346H60.4775ZM69.8232 27.1025C70.9854 27.1025 71.8691 26.5947 72.5234 25.9453L72.0107 25.2324C71.4443 25.7891 70.6875 26.209 69.7988 26.209C68.1875 26.209 66.6738 24.8467 66.6738 23.0693C66.6738 21.2871 68.2021 19.9199 69.7842 19.9199C70.6484 19.9199 71.4395 20.3252 72.0059 20.9062L72.5234 20.208C71.8105 19.4902 70.8291 19.0264 69.8184 19.0166C67.6113 19.0166 65.7754 20.8574 65.7754 23.0693C65.7754 25.3008 67.6357 27.1025 69.8232 27.1025ZM80.9365 23.0693C80.9365 20.8379 79.1152 19.0166 76.8887 19.0166C74.667 19.0166 72.8457 20.8379 72.8457 23.0693C72.8457 25.2861 74.667 27.1025 76.8838 27.1025C77.5527 27.1025 78.1875 26.9414 78.7441 26.6484C79.2471 27.0488 79.8721 27.3467 80.7461 27.3711L80.873 26.502C80.3115 26.4873 79.8672 26.3506 79.4912 26.1504C80.375 25.4082 80.9365 24.2998 80.9365 23.0693ZM73.7441 23.0645C73.7441 21.3311 75.1553 19.9102 76.8838 19.9102C78.6221 19.9102 80.0381 21.3311 80.0381 23.0645C80.0381 24.0996 79.5303 25.0176 78.749 25.5938C77.8213 24.6855 77.3135 23.4258 75.7949 23.3672L75.7119 24.1436C76.7715 24.1777 77.3086 25.1201 78.0557 25.9795C77.6943 26.126 77.2988 26.2041 76.8838 26.2041C75.1553 26.2041 73.7441 24.793 73.7441 23.0645ZM85.0186 27.1221C86.6934 27.1221 87.9336 25.7793 87.9336 23.9434V19.1289H87.04V23.9385C87.04 25.2568 86.1807 26.2236 85.0186 26.2236C83.8564 26.2236 82.9971 25.2617 82.9971 23.9385V19.1289H82.1035V23.9434C82.1035 25.7793 83.3486 27.1221 85.0186 27.1221ZM94.4863 27H95.4531L91.8105 19.0068H91.7129L88.0752 27H89.0371L89.6133 25.7061H93.9102L94.4863 27ZM89.96 24.9346L91.7666 20.8867L93.5684 24.9346H89.96ZM102.064 27L99.7256 23.8262C100.683 23.5381 101.381 22.6592 101.381 21.6387C101.381 20.252 100.189 19.1289 98.7295 19.1289H96.4053L96.4102 27H97.2988V23.9287H98.7686L100.966 27H102.064ZM97.2939 23.1768V20.0078H98.7588C99.6865 20.0078 100.468 20.7109 100.468 21.6191C100.468 22.4688 99.6963 23.1816 98.7588 23.1816L97.2939 23.1768ZM107.66 19.1289H102.201V20.0078H104.491V27H105.38V20.0078H107.66V19.1289ZM64.1689 32.9824L60.4141 39.2422L56.6592 32.9824H56.5566V41H57.4453V35.6484L60.4092 40.8682H60.4189L63.3779 35.6582V41H64.2666V32.9824H64.1689ZM68.7637 41.1221C70.4385 41.1221 71.6787 39.7793 71.6787 37.9434V33.1289H70.7852V37.9385C70.7852 39.2568 69.9258 40.2236 68.7637 40.2236C67.6016 40.2236 66.7422 39.2617 66.7422 37.9385V33.1289H65.8486V37.9434C65.8486 39.7793 67.0938 41.1221 68.7637 41.1221ZM75.4336 41.1074C76.9473 41.1074 78.2021 40.2236 78.2021 38.8662C78.2021 37.6016 77.084 37.0547 75.9023 36.5762C74.8867 36.1855 74.0225 35.9072 74.0225 35.1455C74.0225 34.4424 74.7451 33.8857 75.5898 33.8857C76.2979 33.8857 76.9326 34.2861 77.1865 34.877L77.8555 34.4277C77.5625 33.6514 76.7666 33.0117 75.5996 33.0117C74.2178 33.0117 73.1289 33.915 73.1289 35.126C73.1289 36.3418 74.208 36.8154 75.1748 37.1914C76.1807 37.5723 77.3086 37.9971 77.3086 38.8809C77.3086 39.6572 76.4688 40.2139 75.4385 40.2139C74.6035 40.2139 73.7979 39.7646 73.4414 39.0908L72.7578 39.5938C73.1338 40.4336 74.1396 41.1074 75.4336 41.1074ZM83.9932 34.0029V33.1289H79.3691V41H83.9932V40.1162H80.2578V37.3818H83.4951V36.4932H80.2578V34.0029H83.9932ZM88.2363 41.1221C89.9111 41.1221 91.1514 39.7793 91.1514 37.9434V33.1289H90.2578V37.9385C90.2578 39.2568 89.3984 40.2236 88.2363 40.2236C87.0742 40.2236 86.2148 39.2617 86.2148 37.9385V33.1289H85.3213V37.9434C85.3213 39.7793 86.5664 41.1221 88.2363 41.1221ZM100.341 32.9824L96.5859 39.2422L92.8311 32.9824H92.7285V41H93.6172V35.6484L96.5811 40.8682H96.5908L99.5498 35.6582V41H100.438V32.9824H100.341Z" fill="black"/>
<path d="M11.6199 25.213C11.3729 25.2279 11.0864 25.2355 10.7603 25.2357C10.4338 25.2294 10.1033 25.2103 9.76869 25.1784C9.79193 25.3466 9.81192 25.515 9.82866 25.6835C9.8454 25.8521 9.85869 26.0176 9.86854 26.1801C9.91305 26.9144 9.88864 27.5877 9.7953 28.1999C9.70196 28.8122 9.53832 29.3406 9.30438 29.7853C9.07044 30.2299 8.7656 30.581 8.38988 30.8386C8.02104 31.1023 7.58318 31.2495 7.0763 31.2802C6.69289 31.3035 6.2564 31.2582 5.76685 31.1444C5.28379 31.0302 4.73536 30.8058 4.12154 30.4712L4.29759 30.1475C4.82338 30.4287 5.315 30.6304 5.77246 30.7527C6.23641 30.8746 6.66334 30.9237 7.05325 30.9001C7.47566 30.8745 7.8186 30.7754 8.08208 30.6029C8.34596 30.4369 8.5482 30.2224 8.6888 29.9596C8.83629 29.7028 8.92963 29.4134 8.96882 29.0914C9.0145 28.769 9.0273 28.4422 9.00721 28.1107C8.97924 27.6493 8.91682 27.1574 8.81993 26.635C8.72953 26.1122 8.64062 25.5599 8.55318 24.9782C8.24795 24.8923 7.99697 24.7869 7.80024 24.6618C7.60312 24.5303 7.49884 24.3703 7.48742 24.1818C7.47639 23.9999 7.55142 23.8388 7.7125 23.6986C7.87969 23.5515 8.10083 23.4337 8.37594 23.3453C8.34206 22.7864 8.35121 22.238 8.40339 21.7C8.45518 21.1555 8.52843 20.6423 8.62315 20.1604C8.72436 19.6782 8.83424 19.2312 8.95279 18.8197C9.07783 18.4077 9.19667 18.0548 9.30931 17.761C9.42156 17.4607 9.515 17.2267 9.58963 17.0592C9.67076 16.8912 9.71458 16.807 9.72107 16.8066L10.0723 16.9516C10.0727 16.9581 10.0286 17.0912 9.93996 17.351C9.85095 17.6042 9.7585 17.962 9.6626 18.4244C9.5667 18.8868 9.48606 19.4396 9.42069 20.0827C9.35532 20.7259 9.34626 21.4374 9.39353 22.2172C9.40259 22.3667 9.41224 22.5259 9.42248 22.6948C9.43233 22.8573 9.44868 23.0194 9.47152 23.181C10.1948 23.1698 10.8155 23.2952 11.3336 23.5573C11.8582 23.819 12.3213 24.1954 12.7228 24.6863C13.2746 24.5354 13.7987 24.3047 14.2952 23.9942C14.7977 23.6767 15.2308 23.2885 15.5943 22.8295C15.9643 22.37 16.2487 21.8441 16.4476 21.2515C16.653 20.6586 16.7344 20.0112 16.6919 19.3094C16.658 18.7505 16.5434 18.2585 16.3481 17.8333C16.1588 17.4013 15.9146 17.0312 15.6155 16.7233C15.3225 16.4084 14.9871 16.1482 14.6094 15.9429C14.2382 15.7371 13.8568 15.5776 13.4651 15.4643C13.073 15.3446 12.6835 15.2671 12.2965 15.2319C11.9157 15.1897 11.566 15.1783 11.2476 15.1976C10.3508 15.252 9.5459 15.3693 8.83284 15.5494C8.12628 15.7292 7.50311 15.9399 6.96334 16.1813C6.42358 16.4227 5.95953 16.6759 5.5712 16.9407C5.18936 17.2052 4.87478 17.4493 4.62744 17.673C4.38011 17.8967 4.19904 18.0838 4.08423 18.2342C3.96943 18.3847 3.91202 18.4599 3.91202 18.4599L3.57735 18.265C3.59566 18.2443 3.66833 18.1518 3.79534 17.9876C3.92236 17.8234 4.11258 17.6259 4.36602 17.3953C4.62557 17.1579 4.95236 16.9 5.3464 16.6217C5.74695 16.3431 6.22685 16.0824 6.78611 15.8398C7.35148 15.5903 8.00024 15.3716 8.7324 15.1838C9.46457 14.9959 10.2953 14.8738 11.2246 14.8175C11.7574 14.7852 12.2896 14.7953 12.8211 14.8479C13.3522 14.8939 13.8601 14.9871 14.3447 15.1273C14.829 15.261 15.2804 15.4456 15.6991 15.6811C16.1242 15.9163 16.4939 16.2037 16.808 16.5434C17.1282 16.8762 17.3867 17.2681 17.5837 17.7193C17.7802 18.1639 17.8956 18.6689 17.9299 19.2343C17.9791 20.0466 17.8734 20.777 17.6126 21.4255C17.358 22.0671 16.9976 22.6303 16.5312 23.1151C16.071 23.593 15.5312 23.9943 14.9117 24.3188C14.2982 24.6365 13.6572 24.8742 12.9884 25.0322C13.2371 25.3693 13.459 25.7472 13.6539 26.1659C13.8845 26.6346 14.0968 27.1239 14.2908 27.6339C14.4909 28.1371 14.6968 28.6301 14.9087 29.1129C15.1206 29.5958 15.3472 30.0517 15.5884 30.4806C15.8362 30.9091 16.1163 31.2802 16.4288 31.5939C16.7482 31.9137 17.112 32.159 17.5203 32.33C17.935 32.5005 18.4185 32.569 18.9709 32.5355C19.3608 32.5119 19.7519 32.4001 20.1442 32.2003C20.5433 32.0065 20.9425 31.7051 21.3417 31.2961L21.6019 31.5542C21.3756 31.8028 21.1421 32.0387 20.9013 32.262C20.6608 32.4918 20.4056 32.6932 20.1356 32.8661C19.8725 33.0451 19.591 33.1893 19.2911 33.2988C18.9916 33.4148 18.6664 33.4834 18.3155 33.5047C17.7891 33.5366 17.3264 33.4896 16.9274 33.3638C16.5354 33.2441 16.1883 33.0597 15.8862 32.8106C15.5845 32.568 15.3254 32.2739 15.1087 31.9283C14.8921 31.5827 14.6995 31.203 14.531 30.7893C14.3628 30.382 14.2091 29.9445 14.0698 29.4769C13.9375 29.0153 13.8048 28.5472 13.6717 28.0726C13.5058 27.4891 13.3263 26.9488 13.1332 26.4518C12.9465 25.9544 12.7207 25.5115 12.4558 25.1232C12.314 25.1513 12.1719 25.173 12.0293 25.1882C11.8928 25.1964 11.7563 25.2047 11.6199 25.213ZM9.53355 23.5588C9.55916 23.766 9.5884 23.9795 9.62129 24.1992C9.66028 24.4121 9.69583 24.6219 9.72793 24.8287C9.97802 24.8657 10.2629 24.8843 10.5825 24.8845C10.9021 24.8847 11.2536 24.8732 11.637 24.8499C11.728 24.8444 11.8222 24.8387 11.9197 24.8328C12.0172 24.8269 12.1143 24.8145 12.2109 24.7956C11.8872 24.4043 11.5101 24.101 11.0796 23.8858C10.6552 23.6637 10.1399 23.5547 9.53355 23.5588ZM8.48878 24.5614C8.46791 24.4322 8.45008 24.2996 8.43531 24.1635C8.42015 24.0209 8.40843 23.8814 8.40016 23.7449C8.23356 23.7942 8.10025 23.8544 8.00021 23.9257C7.90667 23.9966 7.86207 24.0678 7.8664 24.1393C7.86955 24.1913 7.91918 24.2567 8.01528 24.3357C8.11748 24.4078 8.27532 24.483 8.48878 24.5614Z" fill="black"/>
<path d="M24.8684 28.4945C24.2098 28.52 23.5689 28.4796 22.9458 28.3733C22.3231 28.2752 21.7671 28.1135 21.2779 27.8881C20.7968 27.6623 20.4069 27.372 20.1081 27.0171C19.8094 26.6621 19.6507 26.2448 19.6322 25.765C19.6149 25.3177 19.7057 24.9274 19.9046 24.5939C20.1115 24.2602 20.3856 23.9767 20.7268 23.7437C21.068 23.5106 21.4519 23.3288 21.8785 23.1983C22.3051 23.0678 22.7373 22.9778 23.1752 22.9283C22.3359 22.073 21.68 21.117 21.2075 20.0602C20.7432 19.0032 20.4856 17.8159 20.4346 16.4986C20.4007 15.6203 20.4744 14.7868 20.6556 13.9979C20.8366 13.201 21.1054 12.4657 21.4622 11.7923C21.8271 11.1185 22.2676 10.507 22.7839 9.95766C23.308 9.3999 23.8924 8.92532 24.5369 8.53393C25.1814 8.14254 25.8781 7.83465 26.6268 7.61026C27.3834 7.37742 28.1682 7.24529 28.9814 7.21386C30.2419 7.16516 31.3965 7.32821 32.4453 7.70304C33.5019 8.06941 34.4146 8.61237 35.1836 9.33191C35.9606 10.0511 36.5729 10.9315 37.0203 11.9729C37.4756 13.0059 37.7279 14.1608 37.7772 15.4375C37.8234 16.6329 37.6971 17.7902 37.3983 18.9093C37.1076 20.0281 36.6717 21.0752 36.0904 22.0505C35.5169 23.0174 34.8142 23.9038 33.982 24.7096C33.1577 25.507 32.2352 26.186 31.2144 26.7467C31.8234 27.334 32.4283 27.9173 33.0289 28.4968C33.6295 29.0762 34.2441 29.5941 34.8725 30.0503C35.5094 30.5143 36.171 30.8797 36.8572 31.1463C37.5519 31.4208 38.2978 31.5427 39.0947 31.5119C39.5989 31.4924 40.0755 31.3925 40.5246 31.2123C40.9822 31.0399 41.4117 30.7749 41.8132 30.4173L42.0929 30.6997C42.0851 30.7082 42.0422 30.7587 41.9644 30.8513C41.8947 30.9435 41.785 31.0577 41.6356 31.1938C41.4864 31.338 41.3008 31.4877 41.0788 31.6429C40.8652 31.8059 40.6145 31.9581 40.3268 32.0995C40.0391 32.2409 39.7179 32.3592 39.3632 32.4544C39.0089 32.5576 38.6203 32.6175 38.1974 32.6338C37.6119 32.6564 37.068 32.596 36.5656 32.4525C36.0714 32.3087 35.6033 32.1029 35.1614 31.8349C34.7194 31.5669 34.2999 31.2492 33.9029 30.8818C33.5059 30.5144 33.1202 30.1221 32.7458 29.7049C32.3713 29.2877 32.0003 28.8542 31.6327 28.4041C31.2654 27.9623 30.8942 27.5246 30.5192 27.0912C29.6719 27.5067 28.7765 27.8345 27.833 28.0745C26.8894 28.3146 25.9012 28.4546 24.8684 28.4945ZM21.6544 16.4514C21.7101 17.8908 21.9289 19.1284 22.311 20.1642C22.7009 21.1916 23.2573 22.1026 23.9803 22.8972C24.6643 22.8952 25.3113 22.9883 25.9212 23.1765C26.5311 23.3646 27.115 23.6149 27.6727 23.9273C28.2304 24.2396 28.7617 24.6059 29.2666 25.0262C29.7796 25.4462 30.2811 25.8828 30.771 26.3363C31.6785 25.7963 32.4799 25.1423 33.175 24.3743C33.8698 23.5982 34.4516 22.7409 34.9203 21.8026C35.3886 20.856 35.7323 19.8451 35.9514 18.7698C36.1783 17.686 36.2694 16.5667 36.2248 15.412C36.1758 14.1434 35.9572 13.0198 35.5692 12.0412C35.1812 11.0626 34.665 10.2437 34.0206 9.58453C33.3761 8.92533 32.6243 8.43723 31.7651 8.12024C30.9137 7.7948 30 7.65093 29.0242 7.68864C27.8776 7.73295 26.8364 7.97678 25.9007 8.42015C24.9728 8.85506 24.1857 9.45557 23.5393 10.2217C22.893 10.9877 22.4029 11.8985 22.069 12.9538C21.7433 14.0088 21.6051 15.1747 21.6544 16.4514ZM26.4217 25.3805C25.4889 24.8464 24.6434 24.252 23.8851 23.5972C23.3569 23.6257 22.9123 23.7121 22.5514 23.8564C22.1902 23.9925 21.8954 24.1627 21.6671 24.367C21.447 24.571 21.2888 24.797 21.1925 25.045C21.0959 25.2849 21.0521 25.5228 21.0612 25.7586C21.0732 26.0676 21.1782 26.3608 21.3762 26.6382C21.5824 26.9153 21.8644 27.1528 22.2222 27.3507C22.5804 27.5568 23.01 27.7153 23.5111 27.8262C24.0203 27.9368 24.5839 27.9802 25.2019 27.9563C26.1371 27.9202 27.0158 27.7926 27.838 27.5735C28.6606 27.3625 29.4351 27.0679 30.1616 26.6897C29.7962 26.2966 29.4153 25.9244 29.019 25.5733C28.6308 25.2218 28.2155 24.908 27.7732 24.6319C27.3309 24.3558 26.858 24.1298 26.3544 23.9538C25.8589 23.7775 25.317 23.664 24.7287 23.6135C25.0152 23.863 25.3177 24.1038 25.6362 24.3358C25.9627 24.5675 26.3054 24.7945 26.6642 25.0168L26.4217 25.3805Z" fill="black"/>
<defs>
<linearGradient id="paint0_linear_2_11" x1="22.5" y1="0" x2="22.5" y2="45" gradientUnits="userSpaceOnUse">
<stop stop-color="#838282"/>
<stop offset="1" stop-color="#D9D9D9" stop-opacity="0"/>
</linearGradient>
</defs>
</svg>
